<svg xmlns="http://www.w3.org/2000/svg" width="512" height="512"><path d="M462 283.742v-55.485l-29.98-10.662c-11.432-4.065-20.63-12.794-25.275-24l-.006-.014c-4.66-11.234-4.334-23.917.888-34.902l13.653-28.724-39.233-39.234-28.72 13.652c-10.98 5.22-23.68 5.546-34.908.89l-.015-.006c-11.215-4.65-19.933-13.834-24-25.273L283.74 50h-55.483l-10.662 29.98c-4.065 11.432-12.794 20.628-24 25.275l-.015.005c-11.235 4.66-23.92 4.333-34.905-.89L129.952 90.72l-39.234 39.234 13.653 28.72c5.22 10.98 5.546 23.682.89 34.91l-.006.014c-4.65 11.214-13.834 19.93-25.27 23.998L50 228.257v55.485l29.98 10.66c11.43 4.066 20.627 12.795 25.274 24l.005.015c4.66 11.236 4.333 23.92-.89 34.906l-13.653 28.723 39.234 39.234 28.722-13.652c10.98-5.22 23.68-5.546 34.91-.89l.013.007c11.214 4.65 19.93 13.833 23.998 25.27L228.257 462h55.484l10.596-29.79c4.103-11.538 12.908-20.824 24.216-25.525l.014-.006c11.127-4.63 23.694-4.312 34.578.862l28.902 13.738 39.234-39.234-13.66-28.737c-5.214-10.97-5.54-23.66-.886-34.878l.006-.014c4.654-11.225 13.848-19.95 25.297-24.02L462 283.74zm-206 47.804c-41.724 0-75.548-33.823-75.548-75.546s33.824-75.547 75.548-75.547c41.723 0 75.546 33.824 75.546 75.547S297.723 331.546 256 331.546z"/></svg>