<svg xmlns="http://www.w3.org/2000/svg" width="512" height="512"><path fill="#fff" d="M450.557 255.305c-12.232-12.448-14.957-31.4-6.728-46.792 5.87-10.98 6.28-24.073 1.107-35.4-5.173-11.326-15.335-19.59-27.48-22.343-17.02-3.86-29.56-18.33-30.957-35.728-.997-12.41-7.73-23.646-18.206-30.38-10.475-6.73-23.492-8.188-35.196-3.94-16.405 5.956-34.777.562-45.358-13.317-7.55-9.903-19.288-15.715-31.74-15.715-12.45 0-24.19 5.812-31.74 15.714-10.58 13.88-28.953 19.273-45.357 13.318-11.705-4.25-24.723-2.79-35.197 3.94-10.476 6.732-17.21 17.968-18.206 30.38-1.397 17.396-13.937 31.867-30.958 35.727-12.143 2.753-22.306 11.016-27.48 22.343-5.172 11.326-4.762 24.418 1.11 35.4 8.23 15.39 5.504 34.343-6.73 46.79-8.726 8.883-12.808 21.33-11.036 33.654 1.772 12.325 9.195 23.117 20.07 29.18 15.244 8.5 23.2 25.916 19.64 43.002-2.54 12.19.755 24.866 8.91 34.277 8.153 9.41 20.23 14.476 32.66 13.696 17.418-1.092 33.526 9.26 39.77 25.56 4.452 11.627 14.08 20.51 26.026 24.02 11.947 3.507 24.848 1.237 34.88-6.137 14.063-10.336 33.212-10.336 47.274 0 10.033 7.374 22.934 9.644 34.88 6.136 11.95-3.51 21.574-12.392 26.028-24.02 6.242-16.3 22.35-26.65 39.77-25.56 12.427.78 24.506-4.285 32.66-13.695 8.154-9.41 11.45-22.088 8.91-34.278-3.56-17.087 4.394-34.504 19.638-43.002 10.876-6.063 18.3-16.855 20.07-29.18 1.773-12.325-2.308-24.77-11.035-33.653zM221.835 356.363l-87.594-87.617 37.298-37.303 50.295 50.31L337.95 165.635l37.312 37.288-153.427 153.44z"/></svg>