<svg xmlns="http://www.w3.org/2000/svg" width="512" height="512"><path fill="#fff" d="M274.934 192.8c-.072-.124.328-1.376.676-1.26.224.073.144.184.42.207.27.022.433-.298.716-.247.443.078.75.49 1.22.503.354.01.564-.343.902-.37.248-.025.47.135.717.08.26-.06.46-.232.682-.36.435-.257.377-.033.877-.084.157-.02.29-.108.44-.136.033-.006.067-.007.1-.004.226.024.314.16.263.423-.107.58-.574 1.012-.65 1.604-.05.386.45.602.32 1.016-.316 1.04-.614 1.094-.815 1.128-.284.05-.484-.042-.604-.1-.355-.17-.603-.497-.94-.7-.18-.11-.39-.14-.58-.22-.585-.25-2.287-1.427-2.816-1.392-.188.01-.343.153-.53.137-.007 0-.017 0-.024-.002-.098-.007-.264-.034-.374-.224zM239.41 142.09c-.038.052-.07.105-.1.158-.052.106-.018.236.08.302.102.066.233.047.31-.044.095-.11.215-.252.37-.438.147-.176.197-.237.413-.33.17-.074.343-.14.518-.198.067-.022.14-.01.196.032s.088.11.086.18c-.017.4.118.837-.286 1.152-.23.182-.413.324-.55.44-.137.115-.174.31-.09.465.084.158.265.234.436.185l.02.014c.016.01.027.026.03.045.114.476.13.476.758.096.02-.01.043-.014.065-.008.01.003.02.01.025.02.086.167.224.3.393.38.234.115.41.332.465.596l.01.05c.006.014.01.03.015.044.214.655.04 1.373-.446 1.86-.488.485-1.208.654-1.86.436h-.003c-.11-.036-.23.004-.295.1s-.06.22.012.31c.064.08.14.153.14.264-.012.407-.524.254-.683.525l-.007.008c-.01.02-.017.04-.02.065-.005.052.016.104.055.14.04.036.093.05.145.038.235-.052.425-.25.673-.27.468-.032.115 1.14-.04 1.313-.17.192-1.353.612-1.728.665-.24.037-.4.06-.48.145-.075.085-.124.577.208.737.506.24.977-.2 1.48-.07.475.123.905.38 1.24.734.03.032.065.05.1.065.164.065.347.062.508-.007.04-.017.078-.04.11-.07.133-.116.272-.156.415-.16.106-.005.206.063.24.166.035.104 0 .217-.09.28-.366.263-.733.53-1.244.47-.272-.03-.548-.032-.82-.003-.838.09-1.63.462-2.235 1.07-.202.203-.417.42-.61.618-.104.107-.113.274-.02.39.093.118.258.147.385.07l.292-.18c.358-.22 1.017-.49 1.375.2l.016.005c.053.016.11.005.155-.028.484-.363.73-1.04 1.438-1.102.505-.04.88.454 1.397.346.58-.122 1.06-.566 1.687-.532.232.013.87.183.932.22.175.107.175.107 1.116.123.396.008.683.33 1.058.388.456.07.874-.2 1.322-.162H248.5c.013 0 1.358-.256 1.332-.812 0-.01-.006-.02-.016-.027l-.017-.01c-.474-.28-.788-.768-.852-1.312-.005-.042.02-.08.062-.093.043-.013.09-.005.13.025.026.022.056.044.08.06.145.098.234.112.288.074.322-.23.666-.45 1.013-.642.187-.103.298-.312.402-.718.03-.125.15-.767-.666-1.223l-.016-.01c-.067-.037-1.583-.817-2.012-.58-.286.15-.286.15-.812-.122-.02-.078.01-.158.072-.207.6-.462.598-.47.586-.6-.022-.288-.173-.493-.345-.684-.152-.166-.168-.412-.04-.595l.006-.01c.115-.156-.485-1.443-.492-1.452-.04-.044-.06-.067-.144-.062-.25.017-.516.024-.768.023-.03 0-.072.004-.132.014-.007 0-.014-.002-.017-.008-.014-.025-.016-.054-.01-.08.08-.317-.228-.52-.257-.81-.03-.293.05-.58.08-.87.025-.26-.005-.555-.088-.84-.304-1.04-.255-2.14.115-3.136.155-.414.37-.812.627-1.17.597-.83-2.084-.723-2.59-.69-.04.002-.078-.017-.1-.05-.02-.035-.018-.077.004-.112.13-.196.147-.452.33-.622.245-.234.578-.308.858-.48.618-.386.1-.624-.125-.683-.538-.14-1.104-.21-1.66-.212-.21 0-.422.03-.637.11-.14.053-.303.228-.468.457-.336.47-.732.886-1.185 1.245l-.072.056c-.126.096-.29.114-.432.055-.083-.035-.176-.035-.26 0-.016.006-.032.014-.048.022-.154.08-.27.2-.352.336-.104.168-.082.384.052.528.134.144.35.18.522.09l.003.008c.024.055.023.117 0 .17-.102.222-.132.464-.223.687-.01.025-.03.042-.06.047-.04.007-.08-.01-.103-.046-.113-.176-.167-.177-.246-.16-.007 0-.017.003-.024.004-.32.066-.543.814-.53 1.03.005.073.027.125.062.163.412.453.448 1.13.085 1.622zM462 256c0 113.77-92.23 206-206 206S50 369.77 50 256 142.23 50 256 50s206 92.23 206 206zm-145.046-88.656c-.01-.492.818-.48.897-1.093.037-.278-.087-.554-.32-.71-.296-.202-.428-.143-.79.02-.212.1-.455.21-.722.21-.215-.004-.397-.158-.435-.37-.034-.188.058-.375.222-.467.063-.035.086-.113.054-.176l-.002-.002c-.023-.047-.066-.082-.117-.094-.567-.138-1.048-.22-1.444-.27-.747-.09-1.51-.032-2.234.17-.595.165-.628.26-.765.654-.364 1.026-.512 1.44-.647 1.618-.498.655-.853 1.393-1.052 2.19-.075.305-.23.57-.585.738h-.036c0 .006-.212 1.86-.195 2.06.03.42.274.824.13 1.263-.13.377-.654.292-.785.663l-.007.018c-.217.625.05 1.572.2 2.208.013.056-.013.114-.064.142-.05.027-.113.018-.153-.025l-.005-.006c-.268-.257-.4-.17-.466-.056-.048.084-.043.187.012.265v.002l.768 1.074c.77 1.08 1.81 1.915 3.03 2.43h.002c.665.293 1.303-.155 1.965-.08.732.085 1.464-.042 2.198-.045.25 0 .755-.075 1.074-.21.26-.113.284-.3.308-.516l.005-.056c.014-.188.046-.214.864-.86.586-.464 1.306-.714 1.9-1.176 1.006-.787 2.286 0 3.373-.335.25-.076 3.657 1.206 3.878 1.315.007.003.012.004.016.007 1.003.42 3.694.44 4.336.622.262.07.656.16 1.036.15.024-.01.052-.022.075-.034.533-.253.87-1.088 1.612-.714 1.29.648 4.926.08 4.04-2.927-.482-1.634-2.634-2.52-3.28-2.754-1.95-.706-3.225-2.38-4.94-3.434-.756-.463-1.646-.048-2.43-.36-1.76-.7-1.76-.7-1.854-1.208-.006-.04.01-.08.037-.116.476-.667.83-1.4 1.052-2.19 0-.006.003-.013.004-.02.083-.28.187-.417-.118-.613-.402-.255-1.176-.01-1.255-.67-.06-.526 1.074-1.113 1.538-1.38.39-.225.555-.52.623-.708.107-.29-.25-.682-.408-.66-.54.062-2.023.945-2.237.97h-.01c-.066.008-.132.03-.19.064l-.005.002-3.392 1.96-.013.01c-.603.44-.935 1.163-.88 1.91.054.745.486 1.41 1.146 1.762.28.15.683.226.544.51v.002c-.07.14-1.923 1.897-2.116 1.923-.5.058-.668-.186-.71-.26-.016-.032-.03-.064-.04-.097-.293-.837-.96-1.52-1.905-1.804-.193-.06-.324-.238-.33-.44zM420.884 256c0-17.074-2.924-34.326-5.915-43.444-.937-2.858-3.104-5.15-5.907-6.237-2.805-1.09-5.95-.86-8.566.624-6.605 3.736-6.398 4.21-8.703 4.093-1.055-.052-5.79 3.097-7.49-.515-.32-.68-1.983-3.742-4.292.482-.624 1.144-4.038.28-5.167-.35-3.324-1.855-7.42-6.193-8.427-7.284l-.008.004s-.003.005-.005.002c-1.135-1.315-4.418.483-2.004 4.076 8.09 12.056 9.51 12.162 11.798 13.363h.004c1.08-.814.926-1.066 2.33-1.265.87-.123 1.622-.668 2.01-1.457.002-.007.007-.015.01-.022.443-.908 1.283-1.56 2.273-1.765s2.02.063 2.786.723l.024.02c1.4 1.206 3.204.092 4.693.8 3.776 1.773 2.336 5.38 1.587 9.65-.002.013-.01.023-.02.03-.01.008-.022.01-.034.01-.35-.07-.675.2-.68.55-.012 1.357.855 2.62.59 4.003-.01.052-.04.094-.087.117-.454.225-.858.523-1.206.893-1.08 1.148-1.15 2.597-2.09 3.893-.88 1.228.068 3.968-2.043 3.984-.81.005-3.51 1.56-3.927 3.333-.494 2.105-1.645 3.98-3.3 5.374-1.214 1.022-2.868 2.356-5.146 4.132-1.084.844-5.464 5.572-9.24 6.457-.52.12-1.06-.078-1.377-.506-.02-.025-.037-.053-.054-.08-2.484-3.856-3.004-8.486-4.958-12.55-2.307-4.815-8.55-6.088-10.29-11.423-1.467-4.504-2.084-6.4-4.137-7.562-1.435-.81-2.632-1.94-3.517-3.33-1.442-2.262-3.633-5.48-5.43-7.214-.817-.788-1.357-1.808-1.545-2.927-.084-.5-.825-.464-.854.048-.104 1.792.228 2.354-.272 2.735-.42.317-.937.144-1.304-.236-1.283-1.324-3.384-3.73-3.912-5.074l-.004.02c-.136.522-.035 1.08.275 1.52 2.778 3.958 16.32 23.512 16.663 25.362 2.256 12.306 11.783 15.254 16.646 19.79.913.853 1.515 1.956 1.75 3.144.226 1.132.766 2.114 1.615 2.895.897.83 1.794.717 6.873.082.844-.11 1.39-.71 1.973-1.25.5-.463 4.622-1.92 5.162-2.26 1.112-.72-.27-.295 2.286-1.508 1.002-.485 2.177-3.497 1.98-.08-.043.882.45 1.677.356 2.563-.53 5.19-.964 6.05-1.262 7.053-.395 1.326-.92 2.607-1.25 3.957-1.555 6.36-4.017 13.145-8.298 18.162-.09.107-.186.205-.29.303-2.366 2.19-6.684 6.24-10.198 13.127-2.21 4.334-5.344 8.098-7.654 12.365-.777 1.447-.97 1.81-.28 3.756.49 1.39 1.958 7.814 2.185 16.05.244 8.978-1.203 10.452-4.078 12.536-4.604 3.334-7.745 5.607-9.9 7.203-2.527 1.865-4.037 4.807-4.074 7.947-.014 1.156-.286 2.613-1.076 4.37l.008.013c.166.314-5.936 3.367-8.038 5.85-.002.002-.003.002-.003.004-.01.06-.005.122.014.18 1.418 4.446-16.568 17.343-20.307 17.313-2.703-.02-9.336 1.037-12.5 2.39-2.13.907-7.89-1.048-8.315-2.274-.064-.187-.083-.522.066-.646 1.41-1.168-3.346-8.04-4.48-8.824-.73-.504-2.11-3.713-2.677-4.514-1.732-2.455 1.25-5.912-.687-8.357-.104-.13-.206-.267-.302-.4l-5.603-7.83c-.87-1.216-3.35-2.655-3.36-4.15v-.01c-.015-1.632 2.9-9.505 3.133-9.837.268-.385.518-.8.73-1.22.118-.233.34-.403.772-.628 1.42-.727 3.458-2.523 1.13-6.33-.137-.23-.137.773-.877-4.504-.484-3.468-5.042-11.323-5.816-12.147 0 0-5.286-2.523-7.71-7.496.124-.285.31-.53.552-.725 2.235-1.79 1.835-4.033 2.493-8.86.033-.24.075-.485.127-.722l.007-.037.066-.32.008-.033c0-.004 0-.006.002-.008.2-.95.452-2.223-.85-4.19-.226-.343-.625-.532-1.035-.49-.02 0-.04.003-.062.005-.713.06-1.343-.46-1.415-1.174l-.004-.025c-.002-.012-.008-.018-.016-.02-1.046-.427-2.204-.485-3.286-.17-2.385.698-7.447 1.737-8.015-1.544-.765-4.404-3.774-5.365-5.253-5.266-6.292.443-11.617 5.848-18.115 5.41-.29-.014-.657-.156-.93-.258-5.61-2.117-11.663-2.16-17.366-3.256-1.936-.37-4.724-1.312-6.128-2.693l-7.993-7.858c-.52-.51-.983-1.074-1.38-1.684-2.536-3.896-3.48-12.473-4.156-14.006-.1-.223-.21-.45-.323-.664l-.687-1.3c-.008-.015-.017-.026-.026-.042l-.002-.002c-1.862-2.434-2.442-5.625-1.56-8.56l3.16-10.5c.046-.153.092-.316.13-.473.083-.334.15-.677.198-1.014.75-5.217-.246-7.12-.735-8.057-.91-1.745-.91-1.745 3.6-8.028 8.21-11.447 9.618-12.02 11.256-12.68v.005h.016c3.57.406 10.33-3.948 10.205-6.31-.036-.76-.123-2.335 1.21-4.438.516-.812 1.17-1.544 1.914-2.15l7.38-5.995c1.36-1.107 3.28-1.203 4.747-.235.998-.35 2.092-.307 3.06.12 1.262.556 2.068.17 2.465-.016 4.47-2.144 9.346-2.8 32.002-4.244.767-.05 1.508.284 1.98.89l.012.018c1.335 1.725.338 1.504 1.852 4.052.576.97.01 1.704-1.802 3.53-.687.694-.575 1.8-.35 1.836.62.03 2.093.418 3.31 1.054 1.603.838 4.145 1.666 6.252 2.275 1.916.553 3.622 1.67 4.9 3.2.83 1 12.046 7.698 11.592-1.41-.03-.636.592-1.74 1.636-2.592 3.644-2.966 6.318.872 7.318 1.1 1.608.367 1.814.365 2.894.343h.044c1 .018 1.46 1.164 4.66.947 5.535-.374 11.12.5 16.636-.476.617-.11 1.48-.312 1.963-.71 6.115-5.053-.084-11.235.865-16.804.003-.016-.002-.032-.014-.045-.01-.012-.026-.02-.042-.017h-.002c-1.887.15-3.68.898-5.113 2.13-.516.444-1.147.763-2.015.853-1.527.154-2.72-.84-4.05-1.343-.668-.254-1.416.08-1.673.75 0 .004-.003.008-.005.013-.514 1.244-6.345.33-8.088-2.59-.53-.888-1.327-1.575-2.285-1.963l-.006-.003.064-.058c1.72-1.62-.91-2.87-1.198-4.128-.144-.628.186-1.265.782-1.51l.034-.013c1.43-.543 2.077-1.317 1.792-1.108-.608.447-1.324.707-2.078.75h-.005c-.4.022-.792-.068-1.138-.26-.846-.47-1.803-.716-2.77-.716-1.162 0-2.34.334-2.578 1.484-.044.214-.167.402-.345.528h-.003c-.148.106-.342.126-.508.052-.296-.138-.585-.103-.812.052-.24.164-.373.427-.342.79.09 1 2.79 2.026.603 3.036l-.016.01s-.943.55-1.024.59c-.9.448-2.075-.545-2.858-.592-.254-.014-.5.093-.76.088h-.02c-.154-.002-.25-.063-.284-.093l-.01-.008c-.078-.066-.924-.818-1.058-1.05-.33-.563-.363-.62-.54-.806-.14-.146-.388-.333-.583-.47-.428-.304-.697-.78-.735-1.304v-.002c-.03-.406-.078-.977-.152-1.603-.167-1.402-.874-2.68-1.972-3.566-.284-.228-.64-.346-1-.33-.23.01-.464-.054-.663-.187-.926-.616-1.542-.748-1.542-.748l-.01-.006-7.24-5.28c-.414-.303-.918-.45-1.43-.418-.424.027-.654-.373-.888-.727-.466-.71-1.342-1.03-2.157-.787-.034.01-.067.02-.1.034-.513.195-.75.81-.476 1.31.153.274.32.542.496.798l4.21 6.128c.7 1.015 1.86 1.616 3.09 1.603.503-.002.928.376.98.877.026.242.165.467.39.597 2.007 1.155 4.605 1.323 6 3.508.014.02.024.045.027.07l.003.02v.01c.007.164-.1.688-.187.846-.145.273-.68.393-.838.25-.112-.1-.104-.34-.093-.598.003-.08-.02-.18-.058-.286-.21-.584-.646-.702-1.21-.944-.775-.328-1.67.016-2.022.78l-.01.022c-.01.02-.02.044-.028.066-.336.868.224 1.13.522 1.278.47.22 1.183.562.99 1.578-.08.43-.554.276-.803.46 0 0 .16-.147-.68 1.537-.294.574-.02.71-.76 1.09-.626.304-.92-.1-.997-.23-.27-.46.104-.873.092-1.317-.008-.2-.013-.376.567-.617.828-.35-.048-1.707-.544-2.476l-.015-.025c-1.017-1.757-.346-.334-1.516-1.428-.722-.676-2.616-1.807-2.988-2.27-2.487-3.08-6.563-4.54-8.7-7.975-.433-.696-1.062-1.25-1.807-1.59-.487-.224-1.067-.384-1.71-.354-.616.03-3.55 1.705-5.908 3.05-2.222 1.27-3.826-1.73-5.99-.87-2.336.928-.955 3.983-2.935 5.117-2.254 1.29-4.948 1.715-6.936 3.533-.08.073-.14.184-.192.302-.61 1.4-1.672 2.008-1.744 2.357-.062.29-.087.413.037.816.264.844 0 1.764-.67 2.34-.002 0-.004.002-.005.003-.435.384-.07 1.593-.468 1.81-.736.38-1.533-.036-2.28.178-1.128.318-1.184 1.78-2.29 2.118-1.443.435-2.84-.475-4.278-.16-3.248.71-3.248.71-3.37 1.004-.114.266-.375.71-.834.708-1.686-.036-1.063-2.147-1.86-3.06-.862-.99-1.102-.882-1.49-.717-.526.228-1.407.61-1.68.452-.36-.223-.646-.557-1.067-.68-.288-.083-.53-.28-.666-.548-.24-.476.36-2.4.497-2.952.083-.333.06-.684-.062-1.004-.145-.377-.502-.63-.905-.64-.077 0-.15-.034-.204-.092-.47-.52 1.465-2.48 2.002-3.48.083-.154.172-.378.236-.542 1.657-4.236 1.654-5.673 1.314-7.087-.15-.625.303-1.23.944-1.268.355-.02.725-.035 1.03-.048.687-.802 1.832-1.028 2.77-.55 1.28.648 3.83 1.573 8.185 1.777 1.055.05 2.11.272 3.098.648.923.35 1.708-.455 2.052-.895.812-1.038.688-2.325.852-3.537.085-.64.444-1.21.983-1.568.144-.096.216-.268.186-.438-.042-.23-.23-2.054-.452-2.072-.01 0-.02-.002-.028-.003-1.802-.195-1.23-2.51-2.412-3.26-1-.637-.958-1.07-3.45-1.34-.36-.038.49-1.77 1.937-2.232.083-.027.174-.02.253.02.89.45 1.884.66 2.88.61.375-.017.724-.206.944-.512.22-.305.29-.694.19-1.058l-.006-.02c-.106-.377.224-.958.648-.68.828.545 1.244.896 2.687.688.355-.052.646-.316.727-.667.04-.166.146-.31.296-.394 1.62-.918 2.307-1.326 2.63-1.697.768-.89 1.67-1.628 2.7-2.2 1.465-.817 2.18-1.348 3.58-2.616.6-.544 1.32-.924 2.112-1.11.242-.056.4-.288.362-.533-.007-.045.005-.094.034-.13.264-.35.664-.57 1.102-.612 1.02-.096 1.63-.096 2.058-.096l.01-.014c.296-.34.727-.53 1.177-.516 1.072.03 2.477.523 2.25-2.41-.336-2.637.543-5.294 2.382-7.216l.01-.01c.83.352.645 1.2.785 2.093.086.535-.078 1.08-.44 1.48-.008.006-.012.013-.018.02-3.514 3.897.99 3.77 1.11 4.77 0 .006 0 .012.003.018.016.168.11.32.253.41.144.09.32.108.48.05.152-.054 3.623-1.502 3.76-1.415.657.412.158.625.684 1.106l.014.012c.786.723 1.94.872 2.885.37 1.993-1.06 4.29-1.41 6.51-1 1.094.2 3.796-2.42 3.296-3.88v-.003c-.306-.89-.357-1.85-.153-2.77.128-.574-.107-.89.55-1.323.33-.218.75-.252 1.11-.09.466.21 1.006.222 1.49.016.64-.272 1.074-.88 1.124-1.575v-.012c.013-.14-.057-.274-.175-.348-.598-.374-.935-1.068-.844-1.782.1-.792.703-1.427 1.49-1.568 2.298-.42 2.714.87 4.898-1.074.132-.117.188-.298.143-.468-.047-.17-.183-.302-.355-.34h-.002c-1.808-.392-3.693-.272-5.438.34l-2.107.737c-.004 0-.005.002-.01.003l-.008.004c-.002 0-.003.002-.005.003-.355.23-.778.338-1.2.304-1.47-.118-2.396-1.51-2.97-3.05-.667-1.787-.44-3.792.604-5.386.518-.79.776-1.804 1.356-2.543.24-.303.328-.698.242-1.074-.24-1.06-2.076-1.53-3.1-1.304-2.045.457-.675 2.905-1.495 4.185-.47.74-2.444 1.263-2.615 2.267-.43 2.576-.656 3.932-.483 4.826.372 1.92.183 3.884-.558 5.693l-.014.036c-.587 1.54.615 3.15-.186 4.68-.936 1.78-3.11.37-3.612 2.518-.207.905-1.98-.428-2.586-1.032-.064-1.77-.745-2.582-1.24-3.965-.402-1.12-1.313-1.982-2.453-2.322-3.03-.903-3.646 2.06-6.326 1.235-2.157-.664-3.67-2.61-3.784-4.866s1.195-4.343 3.275-5.222h.004c7.087-2.98 8.406-5.482 8.88-7.162.105-.38.4-.676.78-.785l.01-.003c.002 0 .003 0 .003-.003.076-.383.27-.73.558-.996.727-.675 1.22-1.576 1.872-2.32.715-.818 1.45-2.08 1.45-2.08h.002s3.672-3.593 7.545-4.82c1.795-.563 3.108-.54 3.538-.454.448.09 1.11.218 2.154.42-.056.35.034.71.246.992.492.654 2.102.493 4.04 1.39 2.248 1.04 4.945.73 7.372 1.235.987.207 1.656 1.13 1.54 2.133-.117 1.002-.98 1.75-1.988 1.723-.7-.02-1.332.412-1.57 1.07-.24.656-.03 1.392.517 1.827.866.685 1.854 1.228 2.894 1.595 1.223.43 3.204.745 2.34-.21-.31-.343-.746-.54-1.204-.542-1.68-.007-1.152-1.547-.245-1.136 1 .453 3.79.753 1.853-1.114-.24-.23-.264-.604-.058-.864.32-.408.582-.862.772-1.344.4-1.026.324-.696 1.64-.297.227.068.46.024.643-.103.37-.26.866-.46.505-.733-.307-.234.322-.772.547-.695.38.13.802.007 1.054-.308.197-.246.256-.57.173-.864-.224-.753.394-2.795 1.472-3.192.262-.097.547-.105.814-.024l.002-.003c.223-.208.488-.37.772-.475.482-.177 1.304-.53 1.884-1.033.593-.514 1.4-.71 2.162-.526.007.002.016 0 .02-.006.24-.262.23-.666-.02-.917-.452-.454-1.996-1.24-1.77-1.84.075-.194 1.03-.427 1.162-1.244.09-.562-.224-1.11-.752-1.317-15.967-6.27-33.148-10.11-51.098-11.092-3.305 2.045-6.613 4.327-9.59 6.793-10.867 9.005-28.033 12.732-27.645 11.732-1.64.02-2.074-.424-2.074-.424-.536.138-1.01.442-1.457.128l-.01-.007c.018-.213-.08-.42-.257-.54-.574-.386-1.697.523-4.418 1.904l-.03.015c-.05.025-.102.05-.15.077-1.147.61-2.434.752-3.304.767-.627.01-1.237.13-1.82.362-.09.035-.19.002-.24-.08-.2-.322.795-.683 1.15-.82.326-.125.172-.49-1.19.287-.293.167-.64.214-.97.13-1.363-.35-3 .743-4.08 1.644-.167.14-.385.22-.645.11-.378-.16-.71-.102-.6.48.13.628-3.465 2.22-3.528 1.948-.07-.196-.274-.31-.477-.267-.47.1-1.04.482-1.354 1.075-.575 1.087-2.135 1.27-2.9 1.906-.787.653-1.957 1.305-1.957 1.305-.43.498-.722.776-1.18.794-.447.018-.708-.768-.51-1.068.12-.182.982-1.03.774-1.074-.086-.017-.16-.072-.2-.15-.146-.28.528-.577.355-.92-.116-.23-1.416-.308-1.518-.425-.076-.085-.093-.208-.042-.312.808-1.642.913-1.746 2.01-2.832-.003-.006-.008-.01-.01-.017-.116-.17-.116-.393 0-.563.615-.895 2.65-3.57 5.02-3.894.63-.09.224-.22.224-.22-.593-.232-1.35-.4-.917-.87.842-.916 2.132-2.136 3.574-2.853.69-.344 1.338-.763 1.933-1.255.59-.486 2.57-1.348 4.715-1.444h.01c1.787-.115 6.517-3.336 6.555-3.38-.002 0-.003-.003-.005-.004-.146-.14.075-.62.03-.866-.02-.102.032-.205.124-.253.464-.245 1.003-.336 1.483-.547.064-.028.108-.086.12-.156.025-.18-.182-.3-.353-.235-.98.364-1.39.514-1.618.582-.126.037-.26-.018-.32-.13-.062-.114-.036-.256.062-.34 1.123-.97 2.636-.985 3.97-1.446.58-.2.584-1.435-.63-1.235-5.97.984-11.393 2.76-17.058 4.633 0 .004.003.008.004.012.04.168-1.142.733-1.287.878-.073.073-.102.18-.073.28 0 .008.003.014.005.02.072.008.095.097.04.138-.225.17-.65-.003-.78.24-.15.288.39.175.49.376.078.15.05.334-.066.455l-.002.004c-.177.18-1.06.57-1.196.406-.123-.152-.147-.285-.322-.173-.633.408-1.032.652-1.396.716-1.277.222-2.898.905-2.898.905.192-.164.797-.736.9-.952.347-.705.726-.925 1.15-1.04.305-.078.353-.508-1.017.01-1.233.467-2.373 1.183-3.33 2.088-.808.76-1.758 1.583-2.442 1.938.13-.22.034-.277-.06-.23-.078.04-.728.63-.987.56-.818-.22.25-.686.25-1.498.084-.136.193-.244.31-.344 0 0-.003 0-.004.002-.93.396-1.77.994-2.455 1.74-.552.6-1.003 1.318-1.597.732-.282-.276-.71-.356-1.074-.186-2.275 1.063-4.52 2.18-6.737 3.342-.235.123-.457.27-.66.442-.153.13-.255.31-.282.51-.034.236-.438.755-.587 1.006-.066.113-.063.254.006.365.204.313.88.084 1.237-.033.508-.167 1.063.04 1.338.5.27.447.2 1.017-.164 1.388-.302.31-.594.65-.854.995-.545.726-1.055 1.488-1.836 1.98-.477.3-.932.644-1.35 1.02-4.272 3.83-4.412 10.8-7.555 12.203l-.02.01c-2.41 1.07-3.25.145-6.14 1.222-.562.21-1.088.058-1.617-.083-.45-.12-.814-.446-.986-.878v-.002c-.634-1.608-2.45-2.4-4.06-1.767-.27.106-.554.153-.87.07l-.014-.01-.008-.006c-.528.152-3.91 1.23-3.67 1.708 0 .003 5.956-1.818 4.617 1.4l-.01.003c-.222.064-.404.22-.503.43-.145.305-.32.48-.816.592-.568.13-1.168-.03-1.597-.425-.004-.004-.01-.005-.013-.005-.303.05-.436.8-.314 1.007.157.267.944.265.13.766-.48.294-1.126.45-1.342.973-.254.618-.568 1.21-.94 1.763-.386.58.457.765-.2 1.298-.786.637-3.49.024-4.435.2-.002 0-1.628.16-2.606.502s-2.743.783-3.716 1.958c-1.674 2.025-1.528 2.45-3.486 1.905-.11-.03-.23 0-.31.085-19.947 21.165-34.353 47.606-40.913 77.007-.003.024-.01.05-.016.074-.433 1.875-.926 4.167-1.65 8.463-.015.1-.014.203.007.303.1.48.194.605.806.605 1.45 0 2.69 1.027 2.958 2.452.068.41.314.697.645.83.322.133.688.107 1.032-.136.22-.156 1.457.922 1.537 2.24.042.71.315 1.525.454 2.226.168.847-.054 1.724-.606 2.39-.086.103-.115.24-.083.37.696 2.71 3.835 14.252 4.484 14.85.374-.07.68.054.887.287 6.345 7.15 13.506 18.827 13.3 22.485-1.43 2.682-1.276 2.543-.09 3.996 2.21 2.716 2.17 2.845 1.333 5.636l.002-.002c.488-.793 1.355-1.273 2.287-1.273.93.003 1.795.485 2.284 1.278.364.59.73 1.176 1.225 1.62 1.306 1.17 1.98 2.894 1.82 4.642 0 .004 2.01.02 4.797 2.115 3.528 2.652 15.987 16.92 16.476 20.828.218 1.742-.495 3.45-1.388 4.96-1.03 1.74-4.353 5.355-4.918 7.302-.28.967-1.83 1.406-1.818 1.982.016.79.257 2.438 1.395 5.69.338.96 1.122 8.085.734 10.96-.23 1.682-.226 1.982.188 3.834.134.58-1.315 2.23-2.315 1.517-1.253-.896-2.297-.762-2.428-.5l-.002.004c-1.73 2.837-7.95 3.34-6.566 6.36.41.893.824 1.783 1.18 2.69.42 1.067.65 2.214.687 3.358.012.494 1.73 4.125 3.102 5.56 30.02 31.394 72.31 50.954 119.178 50.954 91.06-.007 164.88-73.83 164.88-164.893zM231.628 150.916c.685-.297 1.323-.707 2.05-.903l.02-.006c1-.274 1.874-.003 2.175-.382.294-.375.798-1.056 1.034-1.602.113-.27-.174-.654.186-.85.4-.22.05-.643.154-.952.277-.824.462-.846.79-.892.316-.046.612-.086.722-.256.518-.765-1.313-2.964-2.457-2.67-1.188.306-2.145 2.04-2.543 2.016-.504-.027-.734-.043-1.072.222-.26.2-.294.534-.487.774-.226.293-.527.52-.76.81-.193.24-.264.45.008.695.2.177.312.276-.28 1.04-.488.63-1.295.964-1.635 1.738-.12.28-.103.84-.063 1.062.154.807 1.406.483 2.16.157z"/></svg>